<mxfile host="Electron" modified="2024-05-26T09:01:34.958Z" agent="Mozilla/5.0 (Macintosh; Intel Mac OS X 10_15_7) AppleWebKit/537.36 (KHTML, like Gecko) draw.io/23.1.5 Chrome/120.0.6099.109 Electron/28.1.0 Safari/537.36" etag="KI9hnncBWzQIZx8k6Nme" version="23.1.5" type="device">
  <diagram id="9IKIXU8JgnRQ9HeUN2g9" name="第 1 页">
    <mxGraphModel dx="1025" dy="854" grid="0" gridSize="10" guides="1" tooltips="1" connect="1" arrows="1" fold="1" page="1" pageScale="1" pageWidth="500" pageHeight="180" math="0" shadow="0">
      <root>
        <mxCell id="0" />
        <mxCell id="1" parent="0" />
        <mxCell id="Iz2dlNEVhafvXrw2YxZq-1" value="标志位" style="rounded=0;whiteSpace=wrap;html=1;fillColor=#000000;strokeColor=#000000;fontFamily=Times New Roman;gradientColor=none;fillStyle=hatch;fillOpacity=40;" parent="1" vertex="1">
          <mxGeometry x="135" y="15" width="48" height="60" as="geometry" />
        </mxCell>
        <mxCell id="Iz2dlNEVhafvXrw2YxZq-3" value="原始数据包长度" style="rounded=0;whiteSpace=wrap;html=1;fillColor=#000000;strokeColor=#000000;fontFamily=Times New Roman;fillStyle=hatch;fillOpacity=40;direction=south;" parent="1" vertex="1">
          <mxGeometry x="183" y="15" width="101" height="60" as="geometry" />
        </mxCell>
        <mxCell id="Iz2dlNEVhafvXrw2YxZq-4" value="被压缩后的字节流" style="rounded=0;whiteSpace=wrap;html=1;fillColor=#D4D4D4;strokeColor=#666666;fontFamily=Times New Roman;fillStyle=auto;fontColor=#333333;" parent="1" vertex="1">
          <mxGeometry x="284" y="15" width="120" height="60" as="geometry" />
        </mxCell>
        <mxCell id="Iz2dlNEVhafvXrw2YxZq-5" value="标志位" style="rounded=0;whiteSpace=wrap;html=1;fillColor=#000000;strokeColor=#000000;fontFamily=Times New Roman;gradientColor=none;fillStyle=hatch;fillOpacity=40;" parent="1" vertex="1">
          <mxGeometry x="135" y="93" width="48" height="60" as="geometry" />
        </mxCell>
        <mxCell id="Iz2dlNEVhafvXrw2YxZq-7" value="原始字节流" style="rounded=0;whiteSpace=wrap;html=1;fillColor=#D4D4D4;strokeColor=#666666;fontFamily=Times New Roman;fillStyle=auto;fontColor=#333333;" parent="1" vertex="1">
          <mxGeometry x="183" y="93" width="221" height="60" as="geometry" />
        </mxCell>
        <mxCell id="Iz2dlNEVhafvXrw2YxZq-8" value="&lt;span&gt;压缩后的数据包结构&lt;/span&gt;" style="text;html=1;align=center;verticalAlign=middle;resizable=0;points=[];autosize=1;strokeColor=none;fillColor=none;fontStyle=0" parent="1" vertex="1">
          <mxGeometry y="32" width="126" height="26" as="geometry" />
        </mxCell>
        <mxCell id="Iz2dlNEVhafvXrw2YxZq-9" value="&lt;span&gt;未压缩的数据包结构&lt;/span&gt;" style="text;html=1;align=center;verticalAlign=middle;resizable=0;points=[];autosize=1;strokeColor=none;fillColor=none;fontStyle=0" parent="1" vertex="1">
          <mxGeometry y="110" width="126" height="26" as="geometry" />
        </mxCell>
      </root>
    </mxGraphModel>
  </diagram>
</mxfile>
